HIERARCHY
ROOT hips
{
  OFFSET 0 10.6860622 2.3727825e-15
  CHANNELS 6 Xposition Yposition Zposition Yrotation Xrotation Zrotation
  JOINT leftUpperLeg
  {
    OFFSET 0.6642549969 -0.9402397400000004 0
    CHANNELS 3 Yrotation Xrotation Zrotation
    JOINT leftLowerLeg
    {
      OFFSET 0 -3.997221335632195 0
      CHANNELS 3 Yrotation Xrotation Zrotation
      JOINT leftFoot
      {
        OFFSET -0.13777839790000004 -4.6145792000000005 -0.22186036399999998
        CHANNELS 3 Yrotation Xrotation Zrotation
        JOINT leftToes
        {
          OFFSET -0.03777410834999995 -0.9130806927000008 0.85230013
          CHANNELS 3 Yrotation Xrotation Zrotation
          End Site
          {
            OFFSET -0.03777410834999995 -0.9130806927000008 0.85230013
          }
        }
      }
    }
  }
  JOINT rightUpperLeg
  {
    OFFSET -0.6642778626 -0.9402397400000004 0
    CHANNELS 3 Yrotation Xrotation Zrotation
    JOINT rightLowerLeg
    {
      OFFSET 0 -3.997221452859387 0
      CHANNELS 3 Yrotation Xrotation Zrotation
      JOINT rightFoot
      {
        OFFSET 0.1377926176 -4.6145792000000005 -0.22185782299999995
        CHANNELS 3 Yrotation Xrotation Zrotation
        JOINT rightToes
        {
          OFFSET 0.037780746850000047 -0.9130806927000008 0.85230167
          CHANNELS 3 Yrotation Xrotation Zrotation
          End Site
          {
            OFFSET 0.037780746850000047 -0.9130806927000008 0.85230167
          }
        }
      }
    }
  }
  JOINT spine
  {
    OFFSET 0 0.13988381660000015 0
    CHANNELS 3 Yrotation Xrotation Zrotation
    JOINT chest
    {
      OFFSET 0 0.6191039003973773 0
      CHANNELS 3 Yrotation Xrotation Zrotation
      JOINT upperChest
      {
        OFFSET 0 0.9855186130586943 0
        CHANNELS 3 Yrotation Xrotation Zrotation
        JOINT leftShoulder
        {
          OFFSET 0.1807663869 1.5087829790000005 0
          CHANNELS 3 Yrotation Xrotation Zrotation
          JOINT leftUpperArm
          {
            OFFSET 0.5985063006419806 0 0
            CHANNELS 3 Yrotation Xrotation Zrotation
            JOINT leftLowerArm
            {
              OFFSET 2.2993332369501065 0 0
              CHANNELS 3 Yrotation Xrotation Zrotation
              JOINT leftHand
              {
                OFFSET 2.395047042602395 0 0
                CHANNELS 3 Yrotation Xrotation Zrotation
                JOINT leftIndexProximal
                {
                  OFFSET 0.5766295810000004 0.04556643899499946 0.17265095988184
                  CHANNELS 3 Yrotation Xrotation Zrotation
                  JOINT leftIndexIntermediate
                  {
                    OFFSET 0.2957229000000008 -0.019352197700001517 -0.007932640616999987
                    CHANNELS 3 Yrotation Xrotation Zrotation
                    JOINT leftIndexDistal
                    {
                      OFFSET 0.19008243099999922 -0.012484908149998475 -0.002786250786000012
                      CHANNELS 3 Yrotation Xrotation Zrotation
                      End Site
                      {
                        OFFSET 0.19008243099999922 -0.012484908149998475 -0.002786250786000012
                      }
                    }
                  }
                }
                JOINT leftMiddleProximal
                {
                  OFFSET 0.5834975091000001 0.0524350405149987 0.02204081888183999
                  CHANNELS 3 Yrotation Xrotation Zrotation
                  JOINT leftMiddleIntermediate
                  {
                    OFFSET 0.33880573540000003 -0.019871473270000717 -0.00000971183179999946
                    CHANNELS 3 Yrotation Xrotation Zrotation
                    JOINT leftMiddleDistal
                    {
                      OFFSET 0.20676022730000088 -0.012221336379999448 0.0001471936708000235
                      CHANNELS 3 Yrotation Xrotation Zrotation
                      End Site
                      {
                        OFFSET 0.20676022730000088 -0.012221336379999448 0.0001471936708000235
                      }
                    }
                  }
                }
                JOINT leftLittleProximal
                {
                  OFFSET 0.5344154683999995 -0.012880921405001189 -0.24414037221816004
                  CHANNELS 3 Yrotation Xrotation Zrotation
                  JOINT leftLittleIntermediate
                  {
                    OFFSET 0.21758961730000093 -0.011650919939999227 0.011893592810000034
                    CHANNELS 3 Yrotation Xrotation Zrotation
                    JOINT leftLittleDistal
                    {
                      OFFSET 0.1475273964999999 -0.008152365682999818 0.006001092492999946
                      CHANNELS 3 Yrotation Xrotation Zrotation
                      End Site
                      {
                        OFFSET 0.1475273964999999 -0.008152365682999818 0.006001092492999946
                      }
                    }
                  }
                }
                JOINT leftRingProximal
                {
                  OFFSET 0.5799399463000003 0.026911854694997794 -0.12150566991816003
                  CHANNELS 3 Yrotation Xrotation Zrotation
                  JOINT leftRingIntermediate
                  {
                    OFFSET 0.26167887460000006 -0.013480186499999602 0.010996293000000053
                    CHANNELS 3 Yrotation Xrotation Zrotation
                    JOINT leftRingDistal
                    {
                      OFFSET 0.17667108799999987 -0.008990287899999228 0.0055541023999999065
                      CHANNELS 3 Yrotation Xrotation Zrotation
                      End Site
                      {
                        OFFSET 0.17667108799999987 -0.008990287899999228 0.0055541023999999065
                      }
                    }
                  }
                }
                JOINT leftThumbProximal
                {
                  OFFSET 0.11018806699999972 -0.09448718900500053 0.17047963138184
                  CHANNELS 3 Yrotation Xrotation Zrotation
                  JOINT leftThumbIntermediate
                  {
                    OFFSET 0.31062601459999983 -0.08126270900000132 0.15443142000000007
                    CHANNELS 3 Yrotation Xrotation Zrotation
                    JOINT leftThumbDistal
                    {
                      OFFSET 0.21627175790000086 -0.08833193599999878 0.018771167799999988
                      CHANNELS 3 Yrotation Xrotation Zrotation
                      End Site
                      {
                        OFFSET 0.21627175790000086 -0.08833193599999878 0.018771167799999988
                      }
                    }
                  }
                }
              }
            }
          }
        }
        JOINT neck
        {
          OFFSET 0 1.5463305265074576 0
          CHANNELS 3 Yrotation Xrotation Zrotation
          JOINT head
          {
            OFFSET 0 0.8456443600000344 0
            CHANNELS 3 Yrotation Xrotation Zrotation
            JOINT leftEye
            {
              OFFSET 0.30408573140000006 0.5104519199999995 0.1276382305
              CHANNELS 3 Yrotation Xrotation Zrotation
              End Site
              {
                OFFSET 0.30408573140000006 0.5104519199999995 0.1276382305
              }
            }
            JOINT rightEye
            {
              OFFSET -0.30409491089999996 0.5104519199999995 0.1276379445
              CHANNELS 3 Yrotation Xrotation Zrotation
              End Site
              {
                OFFSET -0.30409491089999996 0.5104519199999995 0.1276379445
              }
            }
            JOINT jaw
            {
              OFFSET -3.155239131000001e-7 -0.11984121820000082 0.60178107
              CHANNELS 3 Yrotation Xrotation Zrotation
              End Site
              {
                OFFSET -3.155239131000001e-7 -0.11984121820000082 0.60178107
              }
            }
          }
        }
        JOINT rightShoulder
        {
          OFFSET -0.1807303465 1.5087829790000005 0
          CHANNELS 3 Yrotation Xrotation Zrotation
          JOINT rightUpperArm
          {
            OFFSET -0.5985063796536958 0 0
            CHANNELS 3 Yrotation Xrotation Zrotation
            JOINT rightLowerArm
            {
              OFFSET -2.2993322059002854 0 0
              CHANNELS 3 Yrotation Xrotation Zrotation
              JOINT rightHand
              {
                OFFSET -2.395045314457259 0 0
                CHANNELS 3 Yrotation Xrotation Zrotation
                JOINT rightIndexProximal
                {
                  OFFSET -0.5764487688300002 0.0441371204405987 0.17361932004999997
                  CHANNELS 3 Yrotation Xrotation Zrotation
                  JOINT rightIndexIntermediate
                  {
                    OFFSET -0.29573011380000047 -0.01934826376999843 -0.007698921482999974
                    CHANNELS 3 Yrotation Xrotation Zrotation
                    JOINT rightIndexDistal
                    {
                      OFFSET -0.19008373999999884 -0.012503266380000655 -0.0026365778999999897
                      CHANNELS 3 Yrotation Xrotation Zrotation
                      End Site
                      {
                        OFFSET -0.19008373999999884 -0.012503266380000655 -0.0026365778999999897
                      }
                    }
                  }
                }
                JOINT rightMiddleProximal
                {
                  OFFSET -0.5834852037300005 0.05211639405060153 0.02307162440000001
                  CHANNELS 3 Yrotation Xrotation Zrotation
                  JOINT rightMiddleIntermediate
                  {
                    OFFSET -0.33880114510000003 -0.019952774050000954 0.0002455003561999819
                    CHANNELS 3 Yrotation Xrotation Zrotation
                    JOINT rightMiddleDistal
                    {
                      OFFSET -0.20675694929999955 -0.012273788999999091 0.00030209124000002766
                      CHANNELS 3 Yrotation Xrotation Zrotation
                      End Site
                      {
                        OFFSET -0.20675694929999955 -0.012273788999999091 0.00030209124000002766
                      }
                    }
                  }
                }
                JOINT rightLittleProximal
                {
                  OFFSET -0.5346811737299992 -0.011214256288399227 -0.24363941305000003
                  CHANNELS 3 Yrotation Xrotation Zrotation
                  JOINT rightLittleIntermediate
                  {
                    OFFSET -0.21757715980000092 -0.011771559690000988 0.01201554387
                    CHANNELS 3 Yrotation Xrotation Zrotation
                    JOINT rightLittleDistal
                    {
                      OFFSET -0.1475201849000004 -0.00822055339600003 0.006082065407000015
                      CHANNELS 3 Yrotation Xrotation Zrotation
                      End Site
                      {
                        OFFSET -0.1475201849000004 -0.00822055339600003 0.006082065407000015
                      }
                    }
                  }
                }
                JOINT rightRingProximal
                {
                  OFFSET -0.5800810755299999 0.027657985680600072 -0.12066365025000003
                  CHANNELS 3 Yrotation Xrotation Zrotation
                  JOINT rightRingIntermediate
                  {
                    OFFSET -0.26166445029999974 -0.013623118409999302 0.011164098990000045
                    CHANNELS 3 Yrotation Xrotation Zrotation
                    JOINT rightRingDistal
                    {
                      OFFSET -0.17666387530000027 -0.009072900100000503 0.005668185599999959
                      CHANNELS 3 Yrotation Xrotation Zrotation
                      End Site
                      {
                        OFFSET -0.17666387530000027 -0.009072900100000503 0.005668185599999959
                      }
                    }
                  }
                }
                JOINT rightThumbProximal
                {
                  OFFSET -0.10997596379000074 -0.09577489355940072 0.16989765924999997
                  CHANNELS 3 Yrotation Xrotation Zrotation
                  JOINT rightThumbIntermediate
                  {
                    OFFSET -0.31036620999999986 -0.08229339117999834 0.15440884469999996
                    CHANNELS 3 Yrotation Xrotation Zrotation
                    JOINT rightThumbDistal
                    {
                      OFFSET -0.21631306399999906 -0.08825326400000111 0.018656797720000014
                      CHANNELS 3 Yrotation Xrotation Zrotation
                      End Site
                      {
                        OFFSET -0.21631306399999906 -0.08825326400000111 0.018656797720000014
                      }
                    }
                  }
                }
              }
            }
          }
        }
      }
    }
  }
}
MOTION
Frames: 6
Frame Time: 0.03333333333333333
0 11.682712981546562 0 0 0 0 0 0 -5.826343164929014 -0.3712483961610101 -3.6333298826370974 5.838118207697276 0 0 0 0 0 0 0 0 5.826343164929014 0.3712483961610101 -3.6333298826370974 -5.838118207697276 0 0 0 0 0 0 0 -4.610651315171937 0 0 3.0831277533083026 0 0 0 0 0 1.5275236235667615 0 0 0 0 0 0 0 0 0 0 0 0 0 0 0 0 0 0 0 0 0 0 0 0 0 0 0 0 0 0 0 0 0 0 0 0 0 0 0 0 0 0 0 0 0 0 0 0 0 0 0 0 0 0 0 0 1.5275236235667615 0 0 0 0 0 0 0 0 0 0 0 0 0 0 1.5275236235667615 0 0 0 0 0 0 0 0 0 0 0 0 0 0 0 0 0 0 0 0 0 0 0 0 0 0 0 0 0 0 0 0 0 0 0 0 0 0 0 0 0 0 0 0 0 0 0 0 0 0 0 0 0 0 0
5.366740723532839 -6.392201836086889 -0.20074104700839573 -179.53785581174412 51.996418847857065 0.23121615886173658 177.45877635321563 -24.309764193374534 -146.1186941704968 140.5221124511054 81.77056273291349 155.1462776495151 0.19725439624209565 -3.444721567504197 12.057092818537413 0 0 0 -177.46024828121597 -24.28761172686187 146.1060477716453 -140.4410250022124 81.77877424568021 -155.08593117816793 -0.21585951117461266 -3.4291938050292674 -12.07762985284218 0 0 0 -0.13269123852494816 19.05230546406311 -0.21248752015266775 -1.0834958213253576 40.86983862464102 -1.3193674331478824 0 0 0 -51.43917092219124 -10.522219993249712 24.26238341836722 -22.98315375415137 -4.040148272679177 2.8803441476928793 -5.308616694649619 -11.734641429073761 2.046933420408458 -11.976027855909127 -7.0773653193295205 64.42237424733734 0 0 0 0 0 0 0 0 0 0 0 0 0 0 0 0 0 0 0 0 0 0 0 0 0 0 0 0 0 0 0 0 0 0 0 0 0 0 0 0 0 0 0 0 0 0 -31.4725744857143 0 0 -15.001696991480886 0 0 0 0 0 0 0 0 0 0 40.66446299451515 -14.974499394619508 -18.31169960134645 44.02714923490351 -1.9928890186872823 -3.9808428056122693 5.75039784559126 -11.630474673091646 -8.548569049046316 1.9142381080284494 -6.077118190955076 -61.90584455746499 0 0 0 0 0 0 0 0 0 0 0 0 0 0 0 0 0 0 0 0 0 0 0 0 0 0 0 0 0 0 0 0 0 0 0 0 0 0 0 0 0 0 0 0 0
5.366740723532839 -6.392201836086889 -0.16831469796600942 -179.53785581174412 51.996418847857065 0.23121615886173658 177.39861730618176 -24.299358197645788 -146.2626343144347 140.5221124511054 81.77056273291349 155.1462776495151 0.3723891963454133 -3.1403158712101003 12.10472789756429 0 0 0 -177.40025677759357 -24.278159136197456 146.2505598730718 -140.4410250022124 81.77877424568021 -155.08593117816793 -0.3902025070204198 -3.1257077412154315 -12.124382351052233 0 0 0 -0.13346178138140255 19.993909735857287 -0.21465237082668184 -1.0668555168819485 39.81852658330252 -1.293641977830932 0 0 0 -49.58506618365794 -11.404348219541014 23.665326174148536 -25.02119782550845 -3.873105843714423 3.037608952980445 -5.830336889830678 -11.684295958114104 2.6385883936655636 -11.389890969168766 -7.193280865576109 63.87382472953169 0 0 0 0 0 0 0 0 0 0 0 0 0 0 0 0 0 0 0 0 0 0 0 0 0 0 0 0 0 0 0 0 0 0 0 0 0 0 0 0 0 0 0 0 0 -0.026422790729752944 -31.213056457696318 0.06471887405040211 0 -14.424838628059549 0 0 0 0 0 0 0 0 0 0 39.12891667787739 -15.627800539835551 -17.766917378622047 45.399955877612726 -1.857864440770618 -4.049077812720782 6.501102249827477 -11.515168604373963 -8.828701454508225 1.336136208879426 -6.12048132351447 -61.51599664723178 0 0 0 0 0 0 0 0 0 0 0 0 0 0 0 0 0 0 0 0 0 0 0 0 0 0 0 0 0 0 0 0 0 0 0 0 0 0 0 0 0 0 0 0 0
5.366740723532839 -6.392201836086889 -0.13588834892362317 -179.53785576700616 51.99642439444679 0.23121622457722596 177.3384304595111 -24.28909168486546 -146.40657664062024 140.5221124511054 81.77056273291349 155.1462776495151 0.5477559108630153 -2.8360095650203867 12.153288253334152 0 0 0 -177.3402419947866 -24.26888144497783 146.3950959248324 -140.44102960538874 81.77877424568021 -155.0859379469308 -0.564773086366482 -2.822318198122782 -12.172052447898848 0 0 0 -0.13427655056988058 20.936544291092233 -0.21684760276832682 -1.051046988517896 38.76578229032598 -1.2686578721081156 0 0 0 -47.70597122411846 -12.27140433747852 23.03411908673197 -27.069009606336984 -3.699675831109108 3.189564296252871 -6.351717832896179 -11.628646785744568 3.229999113062354 -10.802100352501732 -7.303693893493397 63.323581807202736 0 0 0 0 0 0 0 0 0 0 0 0 0 0 0 0 0 0 0 0 0 0 0 0 0 0 0 0 0 0 0 0 0 0 0 0 0 0 0 0 0 0 0 0 0 -0.052457542469934525 -30.953229294867626 0.1291859536705695 0 -13.846983607294955 0 0 0 0 0 0 0 0 0 0 37.57691736887655 -16.268799622223305 -17.200452214023294 46.77573875743222 -1.7209210648169597 -4.114200864539972 7.251437922618274 -11.396197799869874 -9.107349975441789 0.7573935742600919 -6.159948460182586 -61.12547895768112 0 0 0 0 0 0 0 0 0 0 0 0 0 0 0 0 0 0 0 0 0 0 0 0 0 0 0 0 0 0 0 0 0 0 0 0 0 0 0 0 0 0 0 0 0
5.366740723532839 -6.392201836086889 -0.1034617314889656 -179.5378557222682 51.99642439444679 0.23121626862653605 177.27822035607318 -24.278947761828796 -146.55052874549915 140.52207642477012 81.77056273291349 155.14624676906527 0.7233601273951598 -2.531812573388672 12.202773810267205 0 0 0 -177.28020258589757 -24.259711188708323 146.5396188867826 -140.44106112621992 81.77877424568021 -155.08596735228863 -0.7395767279282832 -2.5190353939703063 -12.220644393972762 0 0 0 -0.1351369374698789 21.88007553332042 -0.2190736668734636 -1.0360291725540316 37.711783167262176 -1.2443713373439889 0 0 0 -45.802136805254605 -13.121474867928793 22.36883953457867 -29.12534361377595 -3.520107259994918 3.3358370624884195 -6.87265354020822 -11.567697045848412 3.821060290889073 -10.212760131177093 -7.408555997316675 62.77175699642582 0 0 0 0 0 0 0 0 0 0 0 0 0 0 0 0 0 0 0 0 0 0 0 0 0 0 0 0 0 0 0 0 0 0 0 0 0 0 0 0 0 0 0 0 0 -0.0781075908248428 -30.693137857917705 0.19340535496877184 0 -13.268160759253432 0 0 0 0 0 0 0 0 0 0 36.00875691962889 -16.896534325162552 -16.61247588005724 48.15408630223389 -1.5821693575284026 -4.176133331464884 8.00131148231361 -11.273582910292367 -9.384431126149828 0.17808108378543064 -6.195506301298948 -60.73436718665419 0 0 0 0 0 0 0 0 0 0 0 0 0 0 0 0 0 0 0 0 0 0 0 0 0 0 0 0 0 0 0 0 0 0 0 0 0 0 0 0 0 0 0 0 0
5.366740723532839 -6.392201836086889 -0.07103538244657934 -179.53785581174412 51.996418847857065 0.23121615886173658 177.2179841107558 -24.268939510391434 -146.69447433631328 140.52204378477114 81.77056273291349 155.1462131824332 0.8992096015179296 -2.2277339721718543 12.253189669949666 0 0 0 -177.22014087295798 -24.250693291323156 146.68414472501684 -140.4410250022124 81.77877424568021 -155.08593117816793 -0.9146189943807062 -2.2158669888294837 -12.270157347781403 0 0 0 -0.13604319196367015 22.824371877057438 -0.2213316258940298 -1.0217615336082644 36.65670596607824 -1.2207417725438985 0 0 0 -43.87392658954178 -13.952623804180009 21.669664034517776 -31.188936154785132 -3.334678882107002 3.476072832205558 -7.39304059263448 -11.501457980673091 4.411668204159206 -9.621981343788379 -7.507829147645665 62.21845638921198 0 0 0 0 0 0 0 0 0 0 0 0 0 0 0 0 0 0 0 0 0 0 0 0 0 0 0 0 0 0 0 0 0 0 0 0 0 0 0 0 0 0 0 0 0 -0.103375026649946 -30.4327631043701 0.257379514278384 0 -12.688396155511825 0 0 0 0 0 0 0 0 0 0 34.42474982696198 -17.510045745694452 -16.003214803906648 49.53463228480394 -1.4417183082099885 -4.23480710016184 8.75064469590588 -11.14736112760918 -9.659881634317289 -0.4017330276949382 -6.227144196243415 -60.34273264010554 0 0 0 0 0 0 0 0 0 0 0 0 0 0 0 0 0 0 0 0 0 0 0 0 0 0 0 0 0 0 0 0 0 0 0 0 0 0 0 0 0 0 0 0 0
